<svg id="Capa_1" data-name="Capa 1" xmlns="http://www.w3.org/2000/svg" viewBox="0 0 181.73 166.71"><defs><style>.cls-1{fill:#bb162e;}</style></defs><g id="Pm42fa"><path class="cls-1" d="M141.23,114.11a5.81,5.81,0,1,1-5.82,5.81A5.8,5.8,0,0,1,141.23,114.11Zm-4.89,5.81a4.88,4.88,0,1,0,4.88-4.89A4.88,4.88,0,0,0,136.34,119.92Z"/><path class="cls-1" d="M139,117.09h0l2.5,0a2.24,2.24,0,0,1,.91.24,1.43,1.43,0,0,1,.79,1,1.88,1.88,0,0,1-.2,1.41,1.7,1.7,0,0,1-.74.67,1.41,1.41,0,0,1,.18.23c.1.16.19.32.28.48.25.49.49,1,.74,1.48l.05.11H142.4a.11.11,0,0,1-.08-.07c-.25-.48-.49-1-.73-1.45a.81.81,0,0,0-.71-.5H140v2h-1Zm1,2.74c.44,0,.88,0,1.31,0a1,1,0,0,0,.55-.19.9.9,0,0,0,.35-.92.74.74,0,0,0-.54-.65,1.2,1.2,0,0,0-.42-.08c-.4,0-.8,0-1.2,0H140Z"/></g><polygon class="cls-1" points="115.65 66.46 117.66 71.49 115.67 66.43 115.65 66.46"/><path class="cls-1" d="M90,35.27a45.23,45.23,0,0,0-24.8,83l5.83-15.58a.92.92,0,0,0-.65-1.32H60.87a.61.61,0,0,1-.25-.06.38.38,0,0,1-.1,0H58.06a1.12,1.12,0,0,1-.27,0,.7.7,0,0,1-.63-.74h0v0a1.1,1.1,0,0,1,.14-.47l.41-.76L83.55,45.64l.14-.33a1,1,0,0,1,.14-.22,1.46,1.46,0,0,1,1.11-.61h13.3a1.46,1.46,0,0,1,1.25.83l23.37,55.28a.55.55,0,0,1-.55.83H107.37a1.41,1.41,0,0,1-1.23-.84L98.08,80c-.18-.46-.46-1.22-.64-1.68L92.79,66.43l0,0h0l0,.09,1.94,4.94-2-4.91-2.4,4.16L80.22,88.21c-.39.68-.07,1.24.72,1.24l13.94.09c.79,0,1,.52.55,1.14l-24.2,30.95A45.23,45.23,0,1,0,90,35.27Z"/><path class="cls-1" d="M65.24,118.32h0l-4.58,12.25a.9.9,0,0,0-.07.27.9.9,0,0,1,.07-.27Z"/><polygon class="cls-1" points="61.75 131.92 61.75 131.92 61.69 131.92 61.75 131.92"/><path class="cls-1" d="M63.67,131.17a2.9,2.9,0,0,1-.65.42A2.9,2.9,0,0,0,63.67,131.17Z"/><path class="cls-1" d="M64.06,130.8a2,2,0,0,1-.39.37,2,2,0,0,0,.39-.37l7.17-9.17h0Z"/><path class="cls-1" d="M61.75,131.92a3,3,0,0,0,1.27-.33,3,3,0,0,1-1.27.33Z"/><path class="cls-1" d="M60.59,130.84a.92.92,0,0,0,1,1.08h0A.92.92,0,0,1,60.59,130.84Z"/><path class="cls-1" d="M71.23,121.63a45.22,45.22,0,0,1-6-3.31l-4.58,12.25a.9.9,0,0,0-.07.27.92.92,0,0,0,1,1.08h.16a3,3,0,0,0,1.27-.33,2.9,2.9,0,0,0,.65-.42,2,2,0,0,0,.39-.37Z"/></svg>